<svg xmlns="http://www.w3.org/2000/svg" width="792" height="148" viewBox="0 0 792 148" role="img" aria-labelledby="title desc">
  <title id="title">JNU-SHARK commit activity heatmap</title>
  <desc id="desc">697 commits across visible organization repositories in the past year.</desc>
  <style>
    text { font: 10px -apple-system, BlinkMacSystemFont, "Segoe UI", sans-serif; fill: #57606a; }
    .summary { font-weight: 600; fill: #24292f; }
  </style>
  <text class="summary" x="0" y="139">697 commits in visible repositories, last 365 days</text>
  <text x="62" y="13">Jul</text><text x="118" y="13">Aug</text><text x="188" y="13">Sep</text><text x="244" y="13">Oct</text><text x="300" y="13">Nov</text><text x="370" y="13">Dec</text><text x="426" y="13">Jan</text><text x="496" y="13">Feb</text><text x="552" y="13">Mar</text><text x="608" y="13">Apr</text><text x="664" y="13">May</text><text x="734" y="13">Jun</text>
  <text x="0" y="45">Mon</text>
<text x="0" y="73">Wed</text>
<text x="0" y="101">Fri</text>
  <rect x="34" y="22" width="11" height="11" rx="2" fill="#ebedf0"><title>2025-06-15: 0 commits</title></rect><rect x="34" y="36" width="11" height="11" rx="2" fill="#ebedf0"><title>2025-06-16: 0 commits</title></rect><rect x="34" y="50" width="11" height="11" rx="2" fill="#9be9a8"><title>2025-06-17: 4 commits</title></rect><rect x="34" y="64" width="11" height="11" rx="2" fill="#9be9a8"><title>2025-06-18: 1 commits</title></rect><rect x="34" y="78" width="11" height="11" rx="2" fill="#ebedf0"><title>2025-06-19: 0 commits</title></rect><rect x="34" y="92" width="11" height="11" rx="2" fill="#ebedf0"><title>2025-06-20: 0 commits</title></rect><rect x="34" y="106" width="11" height="11" rx="2" fill="#9be9a8"><title>2025-06-21: 3 commits</title></rect><rect x="48" y="22" width="11" height="11" rx="2" fill="#9be9a8"><title>2025-06-22: 3 commits</title></rect><rect x="48" y="36" width="11" height="11" rx="2" fill="#9be9a8"><title>2025-06-23: 1 commits</title></rect><rect x="48" y="50" width="11" height="11" rx="2" fill="#9be9a8"><title>2025-06-24: 1 commits</title></rect><rect x="48" y="64" width="11" height="11" rx="2" fill="#ebedf0"><title>2025-06-25: 0 commits</title></rect><rect x="48" y="78" width="11" height="11" rx="2" fill="#9be9a8"><title>2025-06-26: 2 commits</title></rect><rect x="48" y="92" width="11" height="11" rx="2" fill="#ebedf0"><title>2025-06-27: 0 commits</title></rect><rect x="48" y="106" width="11" height="11" rx="2" fill="#9be9a8"><title>2025-06-28: 2 commits</title></rect><rect x="62" y="22" width="11" height="11" rx="2" fill="#ebedf0"><title>2025-06-29: 0 commits</title></rect><rect x="62" y="36" width="11" height="11" rx="2" fill="#ebedf0"><title>2025-06-30: 0 commits</title></rect><rect x="62" y="50" width="11" height="11" rx="2" fill="#ebedf0"><title>2025-07-01: 0 commits</title></rect><rect x="62" y="64" width="11" height="11" rx="2" fill="#ebedf0"><title>2025-07-02: 0 commits</title></rect><rect x="62" y="78" width="11" height="11" rx="2" fill="#ebedf0"><title>2025-07-03: 0 commits</title></rect><rect x="62" y="92" width="11" height="11" rx="2" fill="#ebedf0"><title>2025-07-04: 0 commits</title></rect><rect x="62" y="106" width="11" height="11" rx="2" fill="#ebedf0"><title>2025-07-05: 0 commits</title></rect><rect x="76" y="22" width="11" height="11" rx="2" fill="#ebedf0"><title>2025-07-06: 0 commits</title></rect><rect x="76" y="36" width="11" height="11" rx="2" fill="#ebedf0"><title>2025-07-07: 0 commits</title></rect><rect x="76" y="50" width="11" height="11" rx="2" fill="#9be9a8"><title>2025-07-08: 2 commits</title></rect><rect x="76" y="64" width="11" height="11" rx="2" fill="#40c463"><title>2025-07-09: 10 commits</title></rect><rect x="76" y="78" width="11" height="11" rx="2" fill="#9be9a8"><title>2025-07-10: 4 commits</title></rect><rect x="76" y="92" width="11" height="11" rx="2" fill="#9be9a8"><title>2025-07-11: 6 commits</title></rect><rect x="76" y="106" width="11" height="11" rx="2" fill="#9be9a8"><title>2025-07-12: 3 commits</title></rect><rect x="90" y="22" width="11" height="11" rx="2" fill="#9be9a8"><title>2025-07-13: 4 commits</title></rect><rect x="90" y="36" width="11" height="11" rx="2" fill="#9be9a8"><title>2025-07-14: 4 commits</title></rect><rect x="90" y="50" width="11" height="11" rx="2" fill="#9be9a8"><title>2025-07-15: 2 commits</title></rect><rect x="90" y="64" width="11" height="11" rx="2" fill="#9be9a8"><title>2025-07-16: 7 commits</title></rect><rect x="90" y="78" width="11" height="11" rx="2" fill="#ebedf0"><title>2025-07-17: 0 commits</title></rect><rect x="90" y="92" width="11" height="11" rx="2" fill="#9be9a8"><title>2025-07-18: 1 commits</title></rect><rect x="90" y="106" width="11" height="11" rx="2" fill="#9be9a8"><title>2025-07-19: 2 commits</title></rect><rect x="104" y="22" width="11" height="11" rx="2" fill="#9be9a8"><title>2025-07-20: 9 commits</title></rect><rect x="104" y="36" width="11" height="11" rx="2" fill="#9be9a8"><title>2025-07-21: 1 commits</title></rect><rect x="104" y="50" width="11" height="11" rx="2" fill="#9be9a8"><title>2025-07-22: 2 commits</title></rect><rect x="104" y="64" width="11" height="11" rx="2" fill="#ebedf0"><title>2025-07-23: 0 commits</title></rect><rect x="104" y="78" width="11" height="11" rx="2" fill="#ebedf0"><title>2025-07-24: 0 commits</title></rect><rect x="104" y="92" width="11" height="11" rx="2" fill="#ebedf0"><title>2025-07-25: 0 commits</title></rect><rect x="104" y="106" width="11" height="11" rx="2" fill="#9be9a8"><title>2025-07-26: 6 commits</title></rect><rect x="118" y="22" width="11" height="11" rx="2" fill="#9be9a8"><title>2025-07-27: 5 commits</title></rect><rect x="118" y="36" width="11" height="11" rx="2" fill="#ebedf0"><title>2025-07-28: 0 commits</title></rect><rect x="118" y="50" width="11" height="11" rx="2" fill="#ebedf0"><title>2025-07-29: 0 commits</title></rect><rect x="118" y="64" width="11" height="11" rx="2" fill="#9be9a8"><title>2025-07-30: 1 commits</title></rect><rect x="118" y="78" width="11" height="11" rx="2" fill="#ebedf0"><title>2025-07-31: 0 commits</title></rect><rect x="118" y="92" width="11" height="11" rx="2" fill="#9be9a8"><title>2025-08-01: 1 commits</title></rect><rect x="118" y="106" width="11" height="11" rx="2" fill="#ebedf0"><title>2025-08-02: 0 commits</title></rect><rect x="132" y="22" width="11" height="11" rx="2" fill="#ebedf0"><title>2025-08-03: 0 commits</title></rect><rect x="132" y="36" width="11" height="11" rx="2" fill="#ebedf0"><title>2025-08-04: 0 commits</title></rect><rect x="132" y="50" width="11" height="11" rx="2" fill="#ebedf0"><title>2025-08-05: 0 commits</title></rect><rect x="132" y="64" width="11" height="11" rx="2" fill="#ebedf0"><title>2025-08-06: 0 commits</title></rect><rect x="132" y="78" width="11" height="11" rx="2" fill="#ebedf0"><title>2025-08-07: 0 commits</title></rect><rect x="132" y="92" width="11" height="11" rx="2" fill="#ebedf0"><title>2025-08-08: 0 commits</title></rect><rect x="132" y="106" width="11" height="11" rx="2" fill="#ebedf0"><title>2025-08-09: 0 commits</title></rect><rect x="146" y="22" width="11" height="11" rx="2" fill="#9be9a8"><title>2025-08-10: 1 commits</title></rect><rect x="146" y="36" width="11" height="11" rx="2" fill="#ebedf0"><title>2025-08-11: 0 commits</title></rect><rect x="146" y="50" width="11" height="11" rx="2" fill="#ebedf0"><title>2025-08-12: 0 commits</title></rect><rect x="146" y="64" width="11" height="11" rx="2" fill="#ebedf0"><title>2025-08-13: 0 commits</title></rect><rect x="146" y="78" width="11" height="11" rx="2" fill="#ebedf0"><title>2025-08-14: 0 commits</title></rect><rect x="146" y="92" width="11" height="11" rx="2" fill="#ebedf0"><title>2025-08-15: 0 commits</title></rect><rect x="146" y="106" width="11" height="11" rx="2" fill="#ebedf0"><title>2025-08-16: 0 commits</title></rect><rect x="160" y="22" width="11" height="11" rx="2" fill="#ebedf0"><title>2025-08-17: 0 commits</title></rect><rect x="160" y="36" width="11" height="11" rx="2" fill="#ebedf0"><title>2025-08-18: 0 commits</title></rect><rect x="160" y="50" width="11" height="11" rx="2" fill="#40c463"><title>2025-08-19: 11 commits</title></rect><rect x="160" y="64" width="11" height="11" rx="2" fill="#9be9a8"><title>2025-08-20: 1 commits</title></rect><rect x="160" y="78" width="11" height="11" rx="2" fill="#ebedf0"><title>2025-08-21: 0 commits</title></rect><rect x="160" y="92" width="11" height="11" rx="2" fill="#ebedf0"><title>2025-08-22: 0 commits</title></rect><rect x="160" y="106" width="11" height="11" rx="2" fill="#ebedf0"><title>2025-08-23: 0 commits</title></rect><rect x="174" y="22" width="11" height="11" rx="2" fill="#ebedf0"><title>2025-08-24: 0 commits</title></rect><rect x="174" y="36" width="11" height="11" rx="2" fill="#ebedf0"><title>2025-08-25: 0 commits</title></rect><rect x="174" y="50" width="11" height="11" rx="2" fill="#ebedf0"><title>2025-08-26: 0 commits</title></rect><rect x="174" y="64" width="11" height="11" rx="2" fill="#ebedf0"><title>2025-08-27: 0 commits</title></rect><rect x="174" y="78" width="11" height="11" rx="2" fill="#ebedf0"><title>2025-08-28: 0 commits</title></rect><rect x="174" y="92" width="11" height="11" rx="2" fill="#ebedf0"><title>2025-08-29: 0 commits</title></rect><rect x="174" y="106" width="11" height="11" rx="2" fill="#ebedf0"><title>2025-08-30: 0 commits</title></rect><rect x="188" y="22" width="11" height="11" rx="2" fill="#ebedf0"><title>2025-08-31: 0 commits</title></rect><rect x="188" y="36" width="11" height="11" rx="2" fill="#ebedf0"><title>2025-09-01: 0 commits</title></rect><rect x="188" y="50" width="11" height="11" rx="2" fill="#ebedf0"><title>2025-09-02: 0 commits</title></rect><rect x="188" y="64" width="11" height="11" rx="2" fill="#ebedf0"><title>2025-09-03: 0 commits</title></rect><rect x="188" y="78" width="11" height="11" rx="2" fill="#9be9a8"><title>2025-09-04: 2 commits</title></rect><rect x="188" y="92" width="11" height="11" rx="2" fill="#ebedf0"><title>2025-09-05: 0 commits</title></rect><rect x="188" y="106" width="11" height="11" rx="2" fill="#ebedf0"><title>2025-09-06: 0 commits</title></rect><rect x="202" y="22" width="11" height="11" rx="2" fill="#ebedf0"><title>2025-09-07: 0 commits</title></rect><rect x="202" y="36" width="11" height="11" rx="2" fill="#ebedf0"><title>2025-09-08: 0 commits</title></rect><rect x="202" y="50" width="11" height="11" rx="2" fill="#ebedf0"><title>2025-09-09: 0 commits</title></rect><rect x="202" y="64" width="11" height="11" rx="2" fill="#ebedf0"><title>2025-09-10: 0 commits</title></rect><rect x="202" y="78" width="11" height="11" rx="2" fill="#ebedf0"><title>2025-09-11: 0 commits</title></rect><rect x="202" y="92" width="11" height="11" rx="2" fill="#ebedf0"><title>2025-09-12: 0 commits</title></rect><rect x="202" y="106" width="11" height="11" rx="2" fill="#ebedf0"><title>2025-09-13: 0 commits</title></rect><rect x="216" y="22" width="11" height="11" rx="2" fill="#ebedf0"><title>2025-09-14: 0 commits</title></rect><rect x="216" y="36" width="11" height="11" rx="2" fill="#ebedf0"><title>2025-09-15: 0 commits</title></rect><rect x="216" y="50" width="11" height="11" rx="2" fill="#ebedf0"><title>2025-09-16: 0 commits</title></rect><rect x="216" y="64" width="11" height="11" rx="2" fill="#ebedf0"><title>2025-09-17: 0 commits</title></rect><rect x="216" y="78" width="11" height="11" rx="2" fill="#ebedf0"><title>2025-09-18: 0 commits</title></rect><rect x="216" y="92" width="11" height="11" rx="2" fill="#ebedf0"><title>2025-09-19: 0 commits</title></rect><rect x="216" y="106" width="11" height="11" rx="2" fill="#ebedf0"><title>2025-09-20: 0 commits</title></rect><rect x="230" y="22" width="11" height="11" rx="2" fill="#ebedf0"><title>2025-09-21: 0 commits</title></rect><rect x="230" y="36" width="11" height="11" rx="2" fill="#ebedf0"><title>2025-09-22: 0 commits</title></rect><rect x="230" y="50" width="11" height="11" rx="2" fill="#ebedf0"><title>2025-09-23: 0 commits</title></rect><rect x="230" y="64" width="11" height="11" rx="2" fill="#ebedf0"><title>2025-09-24: 0 commits</title></rect><rect x="230" y="78" width="11" height="11" rx="2" fill="#ebedf0"><title>2025-09-25: 0 commits</title></rect><rect x="230" y="92" width="11" height="11" rx="2" fill="#9be9a8"><title>2025-09-26: 2 commits</title></rect><rect x="230" y="106" width="11" height="11" rx="2" fill="#ebedf0"><title>2025-09-27: 0 commits</title></rect><rect x="244" y="22" width="11" height="11" rx="2" fill="#9be9a8"><title>2025-09-28: 6 commits</title></rect><rect x="244" y="36" width="11" height="11" rx="2" fill="#9be9a8"><title>2025-09-29: 1 commits</title></rect><rect x="244" y="50" width="11" height="11" rx="2" fill="#ebedf0"><title>2025-09-30: 0 commits</title></rect><rect x="244" y="64" width="11" height="11" rx="2" fill="#ebedf0"><title>2025-10-01: 0 commits</title></rect><rect x="244" y="78" width="11" height="11" rx="2" fill="#ebedf0"><title>2025-10-02: 0 commits</title></rect><rect x="244" y="92" width="11" height="11" rx="2" fill="#ebedf0"><title>2025-10-03: 0 commits</title></rect><rect x="244" y="106" width="11" height="11" rx="2" fill="#9be9a8"><title>2025-10-04: 3 commits</title></rect><rect x="258" y="22" width="11" height="11" rx="2" fill="#9be9a8"><title>2025-10-05: 1 commits</title></rect><rect x="258" y="36" width="11" height="11" rx="2" fill="#ebedf0"><title>2025-10-06: 0 commits</title></rect><rect x="258" y="50" width="11" height="11" rx="2" fill="#ebedf0"><title>2025-10-07: 0 commits</title></rect><rect x="258" y="64" width="11" height="11" rx="2" fill="#ebedf0"><title>2025-10-08: 0 commits</title></rect><rect x="258" y="78" width="11" height="11" rx="2" fill="#ebedf0"><title>2025-10-09: 0 commits</title></rect><rect x="258" y="92" width="11" height="11" rx="2" fill="#ebedf0"><title>2025-10-10: 0 commits</title></rect><rect x="258" y="106" width="11" height="11" rx="2" fill="#ebedf0"><title>2025-10-11: 0 commits</title></rect><rect x="272" y="22" width="11" height="11" rx="2" fill="#ebedf0"><title>2025-10-12: 0 commits</title></rect><rect x="272" y="36" width="11" height="11" rx="2" fill="#ebedf0"><title>2025-10-13: 0 commits</title></rect><rect x="272" y="50" width="11" height="11" rx="2" fill="#ebedf0"><title>2025-10-14: 0 commits</title></rect><rect x="272" y="64" width="11" height="11" rx="2" fill="#ebedf0"><title>2025-10-15: 0 commits</title></rect><rect x="272" y="78" width="11" height="11" rx="2" fill="#ebedf0"><title>2025-10-16: 0 commits</title></rect><rect x="272" y="92" width="11" height="11" rx="2" fill="#ebedf0"><title>2025-10-17: 0 commits</title></rect><rect x="272" y="106" width="11" height="11" rx="2" fill="#ebedf0"><title>2025-10-18: 0 commits</title></rect><rect x="286" y="22" width="11" height="11" rx="2" fill="#ebedf0"><title>2025-10-19: 0 commits</title></rect><rect x="286" y="36" width="11" height="11" rx="2" fill="#ebedf0"><title>2025-10-20: 0 commits</title></rect><rect x="286" y="50" width="11" height="11" rx="2" fill="#ebedf0"><title>2025-10-21: 0 commits</title></rect><rect x="286" y="64" width="11" height="11" rx="2" fill="#ebedf0"><title>2025-10-22: 0 commits</title></rect><rect x="286" y="78" width="11" height="11" rx="2" fill="#ebedf0"><title>2025-10-23: 0 commits</title></rect><rect x="286" y="92" width="11" height="11" rx="2" fill="#ebedf0"><title>2025-10-24: 0 commits</title></rect><rect x="286" y="106" width="11" height="11" rx="2" fill="#ebedf0"><title>2025-10-25: 0 commits</title></rect><rect x="300" y="22" width="11" height="11" rx="2" fill="#ebedf0"><title>2025-10-26: 0 commits</title></rect><rect x="300" y="36" width="11" height="11" rx="2" fill="#ebedf0"><title>2025-10-27: 0 commits</title></rect><rect x="300" y="50" width="11" height="11" rx="2" fill="#9be9a8"><title>2025-10-28: 1 commits</title></rect><rect x="300" y="64" width="11" height="11" rx="2" fill="#9be9a8"><title>2025-10-29: 3 commits</title></rect><rect x="300" y="78" width="11" height="11" rx="2" fill="#9be9a8"><title>2025-10-30: 3 commits</title></rect><rect x="300" y="92" width="11" height="11" rx="2" fill="#9be9a8"><title>2025-10-31: 1 commits</title></rect><rect x="300" y="106" width="11" height="11" rx="2" fill="#9be9a8"><title>2025-11-01: 1 commits</title></rect><rect x="314" y="22" width="11" height="11" rx="2" fill="#9be9a8"><title>2025-11-02: 1 commits</title></rect><rect x="314" y="36" width="11" height="11" rx="2" fill="#9be9a8"><title>2025-11-03: 1 commits</title></rect><rect x="314" y="50" width="11" height="11" rx="2" fill="#9be9a8"><title>2025-11-04: 9 commits</title></rect><rect x="314" y="64" width="11" height="11" rx="2" fill="#9be9a8"><title>2025-11-05: 8 commits</title></rect><rect x="314" y="78" width="11" height="11" rx="2" fill="#ebedf0"><title>2025-11-06: 0 commits</title></rect><rect x="314" y="92" width="11" height="11" rx="2" fill="#9be9a8"><title>2025-11-07: 1 commits</title></rect><rect x="314" y="106" width="11" height="11" rx="2" fill="#9be9a8"><title>2025-11-08: 4 commits</title></rect><rect x="328" y="22" width="11" height="11" rx="2" fill="#9be9a8"><title>2025-11-09: 3 commits</title></rect><rect x="328" y="36" width="11" height="11" rx="2" fill="#ebedf0"><title>2025-11-10: 0 commits</title></rect><rect x="328" y="50" width="11" height="11" rx="2" fill="#9be9a8"><title>2025-11-11: 2 commits</title></rect><rect x="328" y="64" width="11" height="11" rx="2" fill="#ebedf0"><title>2025-11-12: 0 commits</title></rect><rect x="328" y="78" width="11" height="11" rx="2" fill="#ebedf0"><title>2025-11-13: 0 commits</title></rect><rect x="328" y="92" width="11" height="11" rx="2" fill="#ebedf0"><title>2025-11-14: 0 commits</title></rect><rect x="328" y="106" width="11" height="11" rx="2" fill="#9be9a8"><title>2025-11-15: 1 commits</title></rect><rect x="342" y="22" width="11" height="11" rx="2" fill="#ebedf0"><title>2025-11-16: 0 commits</title></rect><rect x="342" y="36" width="11" height="11" rx="2" fill="#9be9a8"><title>2025-11-17: 4 commits</title></rect><rect x="342" y="50" width="11" height="11" rx="2" fill="#9be9a8"><title>2025-11-18: 1 commits</title></rect><rect x="342" y="64" width="11" height="11" rx="2" fill="#9be9a8"><title>2025-11-19: 5 commits</title></rect><rect x="342" y="78" width="11" height="11" rx="2" fill="#9be9a8"><title>2025-11-20: 5 commits</title></rect><rect x="342" y="92" width="11" height="11" rx="2" fill="#216e39"><title>2025-11-21: 31 commits</title></rect><rect x="342" y="106" width="11" height="11" rx="2" fill="#9be9a8"><title>2025-11-22: 1 commits</title></rect><rect x="356" y="22" width="11" height="11" rx="2" fill="#9be9a8"><title>2025-11-23: 5 commits</title></rect><rect x="356" y="36" width="11" height="11" rx="2" fill="#9be9a8"><title>2025-11-24: 7 commits</title></rect><rect x="356" y="50" width="11" height="11" rx="2" fill="#9be9a8"><title>2025-11-25: 1 commits</title></rect><rect x="356" y="64" width="11" height="11" rx="2" fill="#9be9a8"><title>2025-11-26: 8 commits</title></rect><rect x="356" y="78" width="11" height="11" rx="2" fill="#9be9a8"><title>2025-11-27: 1 commits</title></rect><rect x="356" y="92" width="11" height="11" rx="2" fill="#9be9a8"><title>2025-11-28: 1 commits</title></rect><rect x="356" y="106" width="11" height="11" rx="2" fill="#40c463"><title>2025-11-29: 11 commits</title></rect><rect x="370" y="22" width="11" height="11" rx="2" fill="#9be9a8"><title>2025-11-30: 4 commits</title></rect><rect x="370" y="36" width="11" height="11" rx="2" fill="#9be9a8"><title>2025-12-01: 2 commits</title></rect><rect x="370" y="50" width="11" height="11" rx="2" fill="#9be9a8"><title>2025-12-02: 3 commits</title></rect><rect x="370" y="64" width="11" height="11" rx="2" fill="#ebedf0"><title>2025-12-03: 0 commits</title></rect><rect x="370" y="78" width="11" height="11" rx="2" fill="#ebedf0"><title>2025-12-04: 0 commits</title></rect><rect x="370" y="92" width="11" height="11" rx="2" fill="#9be9a8"><title>2025-12-05: 5 commits</title></rect><rect x="370" y="106" width="11" height="11" rx="2" fill="#ebedf0"><title>2025-12-06: 0 commits</title></rect><rect x="384" y="22" width="11" height="11" rx="2" fill="#40c463"><title>2025-12-07: 11 commits</title></rect><rect x="384" y="36" width="11" height="11" rx="2" fill="#9be9a8"><title>2025-12-08: 4 commits</title></rect><rect x="384" y="50" width="11" height="11" rx="2" fill="#9be9a8"><title>2025-12-09: 6 commits</title></rect><rect x="384" y="64" width="11" height="11" rx="2" fill="#9be9a8"><title>2025-12-10: 5 commits</title></rect><rect x="384" y="78" width="11" height="11" rx="2" fill="#9be9a8"><title>2025-12-11: 3 commits</title></rect><rect x="384" y="92" width="11" height="11" rx="2" fill="#9be9a8"><title>2025-12-12: 3 commits</title></rect><rect x="384" y="106" width="11" height="11" rx="2" fill="#9be9a8"><title>2025-12-13: 3 commits</title></rect><rect x="398" y="22" width="11" height="11" rx="2" fill="#9be9a8"><title>2025-12-14: 5 commits</title></rect><rect x="398" y="36" width="11" height="11" rx="2" fill="#9be9a8"><title>2025-12-15: 6 commits</title></rect><rect x="398" y="50" width="11" height="11" rx="2" fill="#40c463"><title>2025-12-16: 13 commits</title></rect><rect x="398" y="64" width="11" height="11" rx="2" fill="#9be9a8"><title>2025-12-17: 2 commits</title></rect><rect x="398" y="78" width="11" height="11" rx="2" fill="#9be9a8"><title>2025-12-18: 7 commits</title></rect><rect x="398" y="92" width="11" height="11" rx="2" fill="#9be9a8"><title>2025-12-19: 6 commits</title></rect><rect x="398" y="106" width="11" height="11" rx="2" fill="#ebedf0"><title>2025-12-20: 0 commits</title></rect><rect x="412" y="22" width="11" height="11" rx="2" fill="#ebedf0"><title>2025-12-21: 0 commits</title></rect><rect x="412" y="36" width="11" height="11" rx="2" fill="#ebedf0"><title>2025-12-22: 0 commits</title></rect><rect x="412" y="50" width="11" height="11" rx="2" fill="#ebedf0"><title>2025-12-23: 0 commits</title></rect><rect x="412" y="64" width="11" height="11" rx="2" fill="#ebedf0"><title>2025-12-24: 0 commits</title></rect><rect x="412" y="78" width="11" height="11" rx="2" fill="#ebedf0"><title>2025-12-25: 0 commits</title></rect><rect x="412" y="92" width="11" height="11" rx="2" fill="#ebedf0"><title>2025-12-26: 0 commits</title></rect><rect x="412" y="106" width="11" height="11" rx="2" fill="#ebedf0"><title>2025-12-27: 0 commits</title></rect><rect x="426" y="22" width="11" height="11" rx="2" fill="#ebedf0"><title>2025-12-28: 0 commits</title></rect><rect x="426" y="36" width="11" height="11" rx="2" fill="#ebedf0"><title>2025-12-29: 0 commits</title></rect><rect x="426" y="50" width="11" height="11" rx="2" fill="#ebedf0"><title>2025-12-30: 0 commits</title></rect><rect x="426" y="64" width="11" height="11" rx="2" fill="#ebedf0"><title>2025-12-31: 0 commits</title></rect><rect x="426" y="78" width="11" height="11" rx="2" fill="#ebedf0"><title>2026-01-01: 0 commits</title></rect><rect x="426" y="92" width="11" height="11" rx="2" fill="#ebedf0"><title>2026-01-02: 0 commits</title></rect><rect x="426" y="106" width="11" height="11" rx="2" fill="#ebedf0"><title>2026-01-03: 0 commits</title></rect><rect x="440" y="22" width="11" height="11" rx="2" fill="#ebedf0"><title>2026-01-04: 0 commits</title></rect><rect x="440" y="36" width="11" height="11" rx="2" fill="#ebedf0"><title>2026-01-05: 0 commits</title></rect><rect x="440" y="50" width="11" height="11" rx="2" fill="#ebedf0"><title>2026-01-06: 0 commits</title></rect><rect x="440" y="64" width="11" height="11" rx="2" fill="#ebedf0"><title>2026-01-07: 0 commits</title></rect><rect x="440" y="78" width="11" height="11" rx="2" fill="#ebedf0"><title>2026-01-08: 0 commits</title></rect><rect x="440" y="92" width="11" height="11" rx="2" fill="#9be9a8"><title>2026-01-09: 1 commits</title></rect><rect x="440" y="106" width="11" height="11" rx="2" fill="#9be9a8"><title>2026-01-10: 1 commits</title></rect><rect x="454" y="22" width="11" height="11" rx="2" fill="#9be9a8"><title>2026-01-11: 1 commits</title></rect><rect x="454" y="36" width="11" height="11" rx="2" fill="#9be9a8"><title>2026-01-12: 4 commits</title></rect><rect x="454" y="50" width="11" height="11" rx="2" fill="#9be9a8"><title>2026-01-13: 6 commits</title></rect><rect x="454" y="64" width="11" height="11" rx="2" fill="#9be9a8"><title>2026-01-14: 9 commits</title></rect><rect x="454" y="78" width="11" height="11" rx="2" fill="#9be9a8"><title>2026-01-15: 3 commits</title></rect><rect x="454" y="92" width="11" height="11" rx="2" fill="#9be9a8"><title>2026-01-16: 4 commits</title></rect><rect x="454" y="106" width="11" height="11" rx="2" fill="#9be9a8"><title>2026-01-17: 3 commits</title></rect><rect x="468" y="22" width="11" height="11" rx="2" fill="#9be9a8"><title>2026-01-18: 3 commits</title></rect><rect x="468" y="36" width="11" height="11" rx="2" fill="#9be9a8"><title>2026-01-19: 7 commits</title></rect><rect x="468" y="50" width="11" height="11" rx="2" fill="#9be9a8"><title>2026-01-20: 1 commits</title></rect><rect x="468" y="64" width="11" height="11" rx="2" fill="#9be9a8"><title>2026-01-21: 1 commits</title></rect><rect x="468" y="78" width="11" height="11" rx="2" fill="#9be9a8"><title>2026-01-22: 3 commits</title></rect><rect x="468" y="92" width="11" height="11" rx="2" fill="#9be9a8"><title>2026-01-23: 5 commits</title></rect><rect x="468" y="106" width="11" height="11" rx="2" fill="#ebedf0"><title>2026-01-24: 0 commits</title></rect><rect x="482" y="22" width="11" height="11" rx="2" fill="#9be9a8"><title>2026-01-25: 3 commits</title></rect><rect x="482" y="36" width="11" height="11" rx="2" fill="#9be9a8"><title>2026-01-26: 2 commits</title></rect><rect x="482" y="50" width="11" height="11" rx="2" fill="#9be9a8"><title>2026-01-27: 3 commits</title></rect><rect x="482" y="64" width="11" height="11" rx="2" fill="#ebedf0"><title>2026-01-28: 0 commits</title></rect><rect x="482" y="78" width="11" height="11" rx="2" fill="#9be9a8"><title>2026-01-29: 2 commits</title></rect><rect x="482" y="92" width="11" height="11" rx="2" fill="#ebedf0"><title>2026-01-30: 0 commits</title></rect><rect x="482" y="106" width="11" height="11" rx="2" fill="#9be9a8"><title>2026-01-31: 3 commits</title></rect><rect x="496" y="22" width="11" height="11" rx="2" fill="#ebedf0"><title>2026-02-01: 0 commits</title></rect><rect x="496" y="36" width="11" height="11" rx="2" fill="#9be9a8"><title>2026-02-02: 1 commits</title></rect><rect x="496" y="50" width="11" height="11" rx="2" fill="#9be9a8"><title>2026-02-03: 5 commits</title></rect><rect x="496" y="64" width="11" height="11" rx="2" fill="#9be9a8"><title>2026-02-04: 4 commits</title></rect><rect x="496" y="78" width="11" height="11" rx="2" fill="#9be9a8"><title>2026-02-05: 5 commits</title></rect><rect x="496" y="92" width="11" height="11" rx="2" fill="#9be9a8"><title>2026-02-06: 5 commits</title></rect><rect x="496" y="106" width="11" height="11" rx="2" fill="#40c463"><title>2026-02-07: 10 commits</title></rect><rect x="510" y="22" width="11" height="11" rx="2" fill="#9be9a8"><title>2026-02-08: 2 commits</title></rect><rect x="510" y="36" width="11" height="11" rx="2" fill="#9be9a8"><title>2026-02-09: 2 commits</title></rect><rect x="510" y="50" width="11" height="11" rx="2" fill="#9be9a8"><title>2026-02-10: 3 commits</title></rect><rect x="510" y="64" width="11" height="11" rx="2" fill="#ebedf0"><title>2026-02-11: 0 commits</title></rect><rect x="510" y="78" width="11" height="11" rx="2" fill="#ebedf0"><title>2026-02-12: 0 commits</title></rect><rect x="510" y="92" width="11" height="11" rx="2" fill="#ebedf0"><title>2026-02-13: 0 commits</title></rect><rect x="510" y="106" width="11" height="11" rx="2" fill="#ebedf0"><title>2026-02-14: 0 commits</title></rect><rect x="524" y="22" width="11" height="11" rx="2" fill="#9be9a8"><title>2026-02-15: 1 commits</title></rect><rect x="524" y="36" width="11" height="11" rx="2" fill="#ebedf0"><title>2026-02-16: 0 commits</title></rect><rect x="524" y="50" width="11" height="11" rx="2" fill="#ebedf0"><title>2026-02-17: 0 commits</title></rect><rect x="524" y="64" width="11" height="11" rx="2" fill="#ebedf0"><title>2026-02-18: 0 commits</title></rect><rect x="524" y="78" width="11" height="11" rx="2" fill="#ebedf0"><title>2026-02-19: 0 commits</title></rect><rect x="524" y="92" width="11" height="11" rx="2" fill="#ebedf0"><title>2026-02-20: 0 commits</title></rect><rect x="524" y="106" width="11" height="11" rx="2" fill="#ebedf0"><title>2026-02-21: 0 commits</title></rect><rect x="538" y="22" width="11" height="11" rx="2" fill="#ebedf0"><title>2026-02-22: 0 commits</title></rect><rect x="538" y="36" width="11" height="11" rx="2" fill="#ebedf0"><title>2026-02-23: 0 commits</title></rect><rect x="538" y="50" width="11" height="11" rx="2" fill="#9be9a8"><title>2026-02-24: 1 commits</title></rect><rect x="538" y="64" width="11" height="11" rx="2" fill="#9be9a8"><title>2026-02-25: 3 commits</title></rect><rect x="538" y="78" width="11" height="11" rx="2" fill="#ebedf0"><title>2026-02-26: 0 commits</title></rect><rect x="538" y="92" width="11" height="11" rx="2" fill="#9be9a8"><title>2026-02-27: 5 commits</title></rect><rect x="538" y="106" width="11" height="11" rx="2" fill="#9be9a8"><title>2026-02-28: 5 commits</title></rect><rect x="552" y="22" width="11" height="11" rx="2" fill="#9be9a8"><title>2026-03-01: 4 commits</title></rect><rect x="552" y="36" width="11" height="11" rx="2" fill="#9be9a8"><title>2026-03-02: 4 commits</title></rect><rect x="552" y="50" width="11" height="11" rx="2" fill="#9be9a8"><title>2026-03-03: 5 commits</title></rect><rect x="552" y="64" width="11" height="11" rx="2" fill="#9be9a8"><title>2026-03-04: 3 commits</title></rect><rect x="552" y="78" width="11" height="11" rx="2" fill="#9be9a8"><title>2026-03-05: 2 commits</title></rect><rect x="552" y="92" width="11" height="11" rx="2" fill="#9be9a8"><title>2026-03-06: 9 commits</title></rect><rect x="552" y="106" width="11" height="11" rx="2" fill="#9be9a8"><title>2026-03-07: 3 commits</title></rect><rect x="566" y="22" width="11" height="11" rx="2" fill="#9be9a8"><title>2026-03-08: 3 commits</title></rect><rect x="566" y="36" width="11" height="11" rx="2" fill="#ebedf0"><title>2026-03-09: 0 commits</title></rect><rect x="566" y="50" width="11" height="11" rx="2" fill="#9be9a8"><title>2026-03-10: 1 commits</title></rect><rect x="566" y="64" width="11" height="11" rx="2" fill="#9be9a8"><title>2026-03-11: 4 commits</title></rect><rect x="566" y="78" width="11" height="11" rx="2" fill="#9be9a8"><title>2026-03-12: 1 commits</title></rect><rect x="566" y="92" width="11" height="11" rx="2" fill="#9be9a8"><title>2026-03-13: 3 commits</title></rect><rect x="566" y="106" width="11" height="11" rx="2" fill="#9be9a8"><title>2026-03-14: 5 commits</title></rect><rect x="580" y="22" width="11" height="11" rx="2" fill="#9be9a8"><title>2026-03-15: 6 commits</title></rect><rect x="580" y="36" width="11" height="11" rx="2" fill="#ebedf0"><title>2026-03-16: 0 commits</title></rect><rect x="580" y="50" width="11" height="11" rx="2" fill="#9be9a8"><title>2026-03-17: 1 commits</title></rect><rect x="580" y="64" width="11" height="11" rx="2" fill="#ebedf0"><title>2026-03-18: 0 commits</title></rect><rect x="580" y="78" width="11" height="11" rx="2" fill="#9be9a8"><title>2026-03-19: 3 commits</title></rect><rect x="580" y="92" width="11" height="11" rx="2" fill="#9be9a8"><title>2026-03-20: 5 commits</title></rect><rect x="580" y="106" width="11" height="11" rx="2" fill="#9be9a8"><title>2026-03-21: 2 commits</title></rect><rect x="594" y="22" width="11" height="11" rx="2" fill="#9be9a8"><title>2026-03-22: 1 commits</title></rect><rect x="594" y="36" width="11" height="11" rx="2" fill="#9be9a8"><title>2026-03-23: 1 commits</title></rect><rect x="594" y="50" width="11" height="11" rx="2" fill="#9be9a8"><title>2026-03-24: 3 commits</title></rect><rect x="594" y="64" width="11" height="11" rx="2" fill="#9be9a8"><title>2026-03-25: 5 commits</title></rect><rect x="594" y="78" width="11" height="11" rx="2" fill="#9be9a8"><title>2026-03-26: 8 commits</title></rect><rect x="594" y="92" width="11" height="11" rx="2" fill="#9be9a8"><title>2026-03-27: 2 commits</title></rect><rect x="594" y="106" width="11" height="11" rx="2" fill="#9be9a8"><title>2026-03-28: 1 commits</title></rect><rect x="608" y="22" width="11" height="11" rx="2" fill="#ebedf0"><title>2026-03-29: 0 commits</title></rect><rect x="608" y="36" width="11" height="11" rx="2" fill="#ebedf0"><title>2026-03-30: 0 commits</title></rect><rect x="608" y="50" width="11" height="11" rx="2" fill="#9be9a8"><title>2026-03-31: 1 commits</title></rect><rect x="608" y="64" width="11" height="11" rx="2" fill="#ebedf0"><title>2026-04-01: 0 commits</title></rect><rect x="608" y="78" width="11" height="11" rx="2" fill="#ebedf0"><title>2026-04-02: 0 commits</title></rect><rect x="608" y="92" width="11" height="11" rx="2" fill="#9be9a8"><title>2026-04-03: 1 commits</title></rect><rect x="608" y="106" width="11" height="11" rx="2" fill="#9be9a8"><title>2026-04-04: 2 commits</title></rect><rect x="622" y="22" width="11" height="11" rx="2" fill="#ebedf0"><title>2026-04-05: 0 commits</title></rect><rect x="622" y="36" width="11" height="11" rx="2" fill="#ebedf0"><title>2026-04-06: 0 commits</title></rect><rect x="622" y="50" width="11" height="11" rx="2" fill="#9be9a8"><title>2026-04-07: 3 commits</title></rect><rect x="622" y="64" width="11" height="11" rx="2" fill="#9be9a8"><title>2026-04-08: 8 commits</title></rect><rect x="622" y="78" width="11" height="11" rx="2" fill="#40c463"><title>2026-04-09: 13 commits</title></rect><rect x="622" y="92" width="11" height="11" rx="2" fill="#216e39"><title>2026-04-10: 38 commits</title></rect><rect x="622" y="106" width="11" height="11" rx="2" fill="#9be9a8"><title>2026-04-11: 1 commits</title></rect><rect x="636" y="22" width="11" height="11" rx="2" fill="#30a14e"><title>2026-04-12: 28 commits</title></rect><rect x="636" y="36" width="11" height="11" rx="2" fill="#9be9a8"><title>2026-04-13: 8 commits</title></rect><rect x="636" y="50" width="11" height="11" rx="2" fill="#9be9a8"><title>2026-04-14: 2 commits</title></rect><rect x="636" y="64" width="11" height="11" rx="2" fill="#ebedf0"><title>2026-04-15: 0 commits</title></rect><rect x="636" y="78" width="11" height="11" rx="2" fill="#9be9a8"><title>2026-04-16: 1 commits</title></rect><rect x="636" y="92" width="11" height="11" rx="2" fill="#ebedf0"><title>2026-04-17: 0 commits</title></rect><rect x="636" y="106" width="11" height="11" rx="2" fill="#ebedf0"><title>2026-04-18: 0 commits</title></rect><rect x="650" y="22" width="11" height="11" rx="2" fill="#ebedf0"><title>2026-04-19: 0 commits</title></rect><rect x="650" y="36" width="11" height="11" rx="2" fill="#ebedf0"><title>2026-04-20: 0 commits</title></rect><rect x="650" y="50" width="11" height="11" rx="2" fill="#9be9a8"><title>2026-04-21: 6 commits</title></rect><rect x="650" y="64" width="11" height="11" rx="2" fill="#9be9a8"><title>2026-04-22: 1 commits</title></rect><rect x="650" y="78" width="11" height="11" rx="2" fill="#9be9a8"><title>2026-04-23: 1 commits</title></rect><rect x="650" y="92" width="11" height="11" rx="2" fill="#9be9a8"><title>2026-04-24: 3 commits</title></rect><rect x="650" y="106" width="11" height="11" rx="2" fill="#ebedf0"><title>2026-04-25: 0 commits</title></rect><rect x="664" y="22" width="11" height="11" rx="2" fill="#ebedf0"><title>2026-04-26: 0 commits</title></rect><rect x="664" y="36" width="11" height="11" rx="2" fill="#ebedf0"><title>2026-04-27: 0 commits</title></rect><rect x="664" y="50" width="11" height="11" rx="2" fill="#ebedf0"><title>2026-04-28: 0 commits</title></rect><rect x="664" y="64" width="11" height="11" rx="2" fill="#ebedf0"><title>2026-04-29: 0 commits</title></rect><rect x="664" y="78" width="11" height="11" rx="2" fill="#9be9a8"><title>2026-04-30: 1 commits</title></rect><rect x="664" y="92" width="11" height="11" rx="2" fill="#ebedf0"><title>2026-05-01: 0 commits</title></rect><rect x="664" y="106" width="11" height="11" rx="2" fill="#ebedf0"><title>2026-05-02: 0 commits</title></rect><rect x="678" y="22" width="11" height="11" rx="2" fill="#ebedf0"><title>2026-05-03: 0 commits</title></rect><rect x="678" y="36" width="11" height="11" rx="2" fill="#ebedf0"><title>2026-05-04: 0 commits</title></rect><rect x="678" y="50" width="11" height="11" rx="2" fill="#9be9a8"><title>2026-05-05: 1 commits</title></rect><rect x="678" y="64" width="11" height="11" rx="2" fill="#9be9a8"><title>2026-05-06: 2 commits</title></rect><rect x="678" y="78" width="11" height="11" rx="2" fill="#9be9a8"><title>2026-05-07: 2 commits</title></rect><rect x="678" y="92" width="11" height="11" rx="2" fill="#ebedf0"><title>2026-05-08: 0 commits</title></rect><rect x="678" y="106" width="11" height="11" rx="2" fill="#9be9a8"><title>2026-05-09: 5 commits</title></rect><rect x="692" y="22" width="11" height="11" rx="2" fill="#ebedf0"><title>2026-05-10: 0 commits</title></rect><rect x="692" y="36" width="11" height="11" rx="2" fill="#9be9a8"><title>2026-05-11: 1 commits</title></rect><rect x="692" y="50" width="11" height="11" rx="2" fill="#ebedf0"><title>2026-05-12: 0 commits</title></rect><rect x="692" y="64" width="11" height="11" rx="2" fill="#9be9a8"><title>2026-05-13: 2 commits</title></rect><rect x="692" y="78" width="11" height="11" rx="2" fill="#9be9a8"><title>2026-05-14: 2 commits</title></rect><rect x="692" y="92" width="11" height="11" rx="2" fill="#9be9a8"><title>2026-05-15: 2 commits</title></rect><rect x="692" y="106" width="11" height="11" rx="2" fill="#9be9a8"><title>2026-05-16: 1 commits</title></rect><rect x="706" y="22" width="11" height="11" rx="2" fill="#ebedf0"><title>2026-05-17: 0 commits</title></rect><rect x="706" y="36" width="11" height="11" rx="2" fill="#9be9a8"><title>2026-05-18: 8 commits</title></rect><rect x="706" y="50" width="11" height="11" rx="2" fill="#9be9a8"><title>2026-05-19: 3 commits</title></rect><rect x="706" y="64" width="11" height="11" rx="2" fill="#9be9a8"><title>2026-05-20: 4 commits</title></rect><rect x="706" y="78" width="11" height="11" rx="2" fill="#40c463"><title>2026-05-21: 11 commits</title></rect><rect x="706" y="92" width="11" height="11" rx="2" fill="#9be9a8"><title>2026-05-22: 1 commits</title></rect><rect x="706" y="106" width="11" height="11" rx="2" fill="#9be9a8"><title>2026-05-23: 2 commits</title></rect><rect x="720" y="22" width="11" height="11" rx="2" fill="#9be9a8"><title>2026-05-24: 1 commits</title></rect><rect x="720" y="36" width="11" height="11" rx="2" fill="#9be9a8"><title>2026-05-25: 2 commits</title></rect><rect x="720" y="50" width="11" height="11" rx="2" fill="#ebedf0"><title>2026-05-26: 0 commits</title></rect><rect x="720" y="64" width="11" height="11" rx="2" fill="#ebedf0"><title>2026-05-27: 0 commits</title></rect><rect x="720" y="78" width="11" height="11" rx="2" fill="#ebedf0"><title>2026-05-28: 0 commits</title></rect><rect x="720" y="92" width="11" height="11" rx="2" fill="#9be9a8"><title>2026-05-29: 1 commits</title></rect><rect x="720" y="106" width="11" height="11" rx="2" fill="#ebedf0"><title>2026-05-30: 0 commits</title></rect><rect x="734" y="22" width="11" height="11" rx="2" fill="#ebedf0"><title>2026-05-31: 0 commits</title></rect><rect x="734" y="36" width="11" height="11" rx="2" fill="#ebedf0"><title>2026-06-01: 0 commits</title></rect><rect x="734" y="50" width="11" height="11" rx="2" fill="#ebedf0"><title>2026-06-02: 0 commits</title></rect><rect x="734" y="64" width="11" height="11" rx="2" fill="#9be9a8"><title>2026-06-03: 2 commits</title></rect><rect x="734" y="78" width="11" height="11" rx="2" fill="#ebedf0"><title>2026-06-04: 0 commits</title></rect><rect x="734" y="92" width="11" height="11" rx="2" fill="#ebedf0"><title>2026-06-05: 0 commits</title></rect><rect x="734" y="106" width="11" height="11" rx="2" fill="#ebedf0"><title>2026-06-06: 0 commits</title></rect><rect x="748" y="22" width="11" height="11" rx="2" fill="#ebedf0"><title>2026-06-07: 0 commits</title></rect><rect x="748" y="36" width="11" height="11" rx="2" fill="#ebedf0"><title>2026-06-08: 0 commits</title></rect><rect x="748" y="50" width="11" height="11" rx="2" fill="#ebedf0"><title>2026-06-09: 0 commits</title></rect><rect x="748" y="64" width="11" height="11" rx="2" fill="#ebedf0"><title>2026-06-10: 0 commits</title></rect><rect x="748" y="78" width="11" height="11" rx="2" fill="#ebedf0"><title>2026-06-11: 0 commits</title></rect><rect x="748" y="92" width="11" height="11" rx="2" fill="#ebedf0"><title>2026-06-12: 0 commits</title></rect><rect x="748" y="106" width="11" height="11" rx="2" fill="#ebedf0"><title>2026-06-13: 0 commits</title></rect><rect x="762" y="22" width="11" height="11" rx="2" fill="#ebedf0"><title>2026-06-14: 0 commits</title></rect><rect x="762" y="36" width="11" height="11" rx="2" fill="#ebedf0"><title>2026-06-15: 0 commits</title></rect><rect x="762" y="50" width="11" height="11" rx="2" fill="#ebedf0"><title>2026-06-16: 0 commits</title></rect><rect x="762" y="64" width="11" height="11" rx="2" fill="#9be9a8"><title>2026-06-17: 1 commits</title></rect>
  <text x="598" y="139">Less</text><text x="714" y="139">More</text><rect x="632" y="130" width="11" height="11" rx="2" fill="#ebedf0"/><rect x="646" y="130" width="11" height="11" rx="2" fill="#9be9a8"/><rect x="660" y="130" width="11" height="11" rx="2" fill="#40c463"/><rect x="674" y="130" width="11" height="11" rx="2" fill="#30a14e"/><rect x="688" y="130" width="11" height="11" rx="2" fill="#216e39"/>
</svg>
